<svg width="63" height="63" viewBox="0 0 63 63" fill="none" xmlns="http://www.w3.org/2000/svg">
<g filter="url(#filter0_d_18_2)">
<rect x="4" y="4" width="53" height="53" rx="8" fill="#51A2FF"/>
<rect x="2" y="2" width="57" height="57" rx="10" stroke="black" stroke-width="4"/>
</g>
<path d="M17.3654 14.2733L23.9781 10.4946C24.3158 10.3016 24.7301 10.3009 25.0684 10.4927L45.0069 21.7958C45.3521 21.9915 45.5655 22.3577 45.5655 22.7546V32.2122C45.5655 32.61 45.3511 32.977 45.0045 33.1723L33.9075 39.4269C33.5574 39.6243 33.1277 39.6154 32.786 39.4037L26.4817 35.4984C25.7856 35.0672 25.7862 34.0543 26.4828 33.624L35.0363 28.3393C35.7444 27.9019 35.7306 26.8675 35.0111 26.4491L17.3581 16.1828C16.6242 15.756 16.6283 14.6945 17.3654 14.2733Z" fill="white"/>
<path d="M22.5863 21.6961L16.0474 25.3535C15.699 25.5483 15.4833 25.9163 15.4833 26.3154V48.1849C15.4833 49.0391 16.413 49.5685 17.1476 49.1327L23.6866 45.2537C24.0212 45.0552 24.2264 44.6949 24.2264 44.3058V22.658C24.2264 21.8163 23.3209 21.2853 22.5863 21.6961Z" fill="white"/>
<defs>
<filter id="filter0_d_18_2" x="0" y="-2.00272e-05" width="63" height="63" filterUnits="userSpaceOnUse" color-interpolation-filters="sRGB">
<feFlood flood-opacity="0" result="BackgroundImageFix"/>
<feColorMatrix in="SourceAlpha" type="matrix" values="0 0 0 0 0 0 0 0 0 0 0 0 0 0 0 0 0 0 127 0" result="hardAlpha"/>
<feOffset dx="2" dy="2"/>
<feComposite in2="hardAlpha" operator="out"/>
<feColorMatrix type="matrix" values="0 0 0 0 0 0 0 0 0 0 0 0 0 0 0 0 0 0 1 0"/>
<feBlend mode="normal" in2="BackgroundImageFix" result="effect1_dropShadow_18_2"/>
<feBlend mode="normal" in="SourceGraphic" in2="effect1_dropShadow_18_2" result="shape"/>
</filter>
</defs>
</svg>
